# xmcd
# 
# Track frame offsets:
#     150
#     5635
#     32225
#     55085
#     79455
#     103308
#     122445
#     145633
#     169298
#     197495
#     220990
#     240608
# 
# Disc length: 3425
# 
# Revision: 17
# Processed by: cddbd v1.5.2PL0 Copyright (c) Steve Scherf et al.
# Submitted via: BonkEnc v1.0.6
# 
DISCID=a70d5f0c
DTITLE=Globe - Globe
DYEAR=1996
DGENRE=J-Pop
TTITLE0=GIVE YOU
TTITLE1=Feel Like dance
TTITLE2=GONNA BE ALRIGHT
TTITLE3=DEPARTURES
TTITLE4=Regret of the Day
TTITLE5=Joy to the love
TTITLE6=SWEET PAIN
TTITLE7=Always Together
TTITLE8=Precious Memories
TTITLE9=FREEDOM
TTITLE10=MUSIC TAKES ME HIGHER
TTITLE11=LIGHTS OUT
EXTD=YEAR: 1996
EXTT0=
EXTT1=
EXTT2=
EXTT3=
EXTT4=
EXTT5=
EXTT6=
EXTT7=
EXTT8=
EXTT9=
EXTT10=
EXTT11=
PLAYORDER=
